<svg width="55" height="55" viewBox="0 0 55 55" fill="none" xmlns="http://www.w3.org/2000/svg">
<path fill-rule="evenodd" clip-rule="evenodd" d="M55.0007 26.0497H49.2113C49.2113 14.3087 40.6776 5.78947 28.9192 5.78947V0C43.7894 0 55.0007 11.1997 55.0007 26.0497ZM37.6324 26.0527C37.6324 19.9651 35.0358 17.3685 28.9482 17.3685V11.579C38.2837 11.579 43.4219 16.7172 43.4219 26.0527H37.6324ZM36.8155 32.3726C37.5668 32.3493 38.2977 32.619 38.854 33.1245L50.6182 43.8235C51.1754 44.3303 51.5131 45.0344 51.5596 45.7863C51.6061 46.5381 51.3577 47.2784 50.8671 47.8501L45.4829 54.1345C44.9831 54.6372 44.3149 54.9373 43.6071 54.9769C43.5116 54.9827 43.1527 55.0001 42.5679 55.0001C38.5674 55.0001 24.0416 54.1519 12.4453 42.5585C-0.847342 29.2601 -0.019447 12.1174 0.0239741 11.3937C0.0642675 10.6858 0.36298 10.0173 0.863449 9.51505L7.14503 4.12795C7.71702 3.63775 8.45758 3.38983 9.20942 3.43686C9.96126 3.48388 10.6652 3.82214 11.1716 4.37979L21.8677 16.1411C22.3739 16.697 22.644 17.4281 22.6208 18.1796C22.5975 18.9311 22.2828 19.6441 21.7432 20.1677L14.625 27.0977C14.9348 28.7535 15.9798 32.1143 19.4303 35.5677C22.8808 39.0095 26.2329 40.0545 27.9003 40.373L34.8274 33.249C35.3514 32.7101 36.0642 32.3958 36.8155 32.3726Z" fill="#F8F8F8"/>
</svg>
